<svg width="200" height="200" xmlns="http://www.w3.org/2000/svg" xmlns:xlink="http://www.w3.org/1999/xlink" xml:space="preserve" overflow="hidden"><g transform="translate(-2301 -1190)"><g><g><g><g><g><path d="M2401.5 1360.39C2440.1 1360.39 2471.39 1329.1 2471.39 1290.5 2471.39 1251.91 2440.1 1220.62 2401.5 1220.62 2362.91 1220.62 2331.62 1251.91 2331.62 1290.5 2331.62 1329.1 2362.91 1360.39 2401.5 1360.39Z" fill="#FF7EB6" fill-rule="nonzero" fill-opacity="1"/><path d="M2401.5 1390C2456.45 1390 2501 1345.45 2501 1290.5 2501 1235.55 2456.45 1191.01 2401.5 1191.01 2346.55 1191.01 2302.01 1235.55 2302.01 1290.5 2302.01 1345.45 2346.55 1390 2401.5 1390Z" fill="#FF7EB6" fill-rule="nonzero" fill-opacity="1"/><path d="M2376.31 1237.03 2374.05 1238.34C2372.54 1239.22 2371.29 1238.66 2370.51 1237.31L2370.09 1236.59C2367.13 1237.81 2364.46 1235.96 2362.09 1231.87 2359.5 1227.41 2359.43 1223.98 2362.72 1222.08 2366.01 1220.17 2368.95 1221.94 2371.53 1226.41 2373.9 1230.5 2374.15 1233.75 2371.64 1235.69L2372.62 1237.39 2375.54 1235.7 2376.31 1237.03ZM2370.45 1228.52 2369.16 1226.28C2367.58 1223.54 2365.7 1222.26 2363.55 1223.5 2361.4 1224.75 2361.57 1227.02 2363.17 1229.75L2364.46 1231.99C2366.04 1234.73 2367.93 1236.01 2370.07 1234.77 2372.21 1233.52 2372.04 1231.26 2370.45 1228.52Z" fill="#000000" fill-rule="nonzero" fill-opacity="1"/><path d="M2377.73 1232.29 2377.26 1230.85 2380.96 1229.63 2376.97 1217.52 2373.27 1218.74 2372.8 1217.31 2381.97 1214.29 2382.44 1215.72 2378.74 1216.94 2382.73 1229.05 2386.43 1227.83 2386.9 1229.27 2377.73 1232.29Z" fill="#000000" fill-rule="nonzero" fill-opacity="1"/><path d="M2388.71 1226.24 2389.94 1224.96C2391.31 1226.36 2392.66 1226.96 2394.53 1226.75 2396.77 1226.5 2397.87 1225.27 2397.65 1223.38 2397.48 1221.85 2396.61 1221.13 2394.47 1221L2392.71 1220.9C2389.61 1220.72 2388.46 1219.06 2388.23 1217.08 2387.92 1214.21 2389.77 1212.5 2392.93 1212.14 2395.39 1211.87 2397.17 1212.58 2398.39 1213.97L2397.2 1215.26C2396.21 1214.21 2395.01 1213.55 2393.08 1213.76 2390.99 1214 2389.92 1215.05 2390.11 1216.82 2390.27 1218.21 2391.08 1219.03 2393.32 1219.17L2395.02 1219.28C2398.12 1219.48 2399.32 1221.08 2399.54 1223.12 2399.87 1226.01 2398.09 1227.99 2394.64 1228.37 2391.87 1228.68 2390.05 1227.72 2388.71 1226.24Z" fill="#000000" fill-rule="nonzero" fill-opacity="1"/><path d="M2407.36 1220.24 2404.89 1222.69 2404.41 1227.72 2402.54 1227.55 2404.02 1211.85 2405.89 1212.02 2405.11 1220.21 2405.17 1220.21 2407.47 1217.79 2412.58 1212.65 2414.83 1212.86 2408.75 1218.96 2413.5 1228.58 2411.32 1228.37 2407.35 1220.24 2407.36 1220.24Z" fill="#000000" fill-rule="nonzero" fill-opacity="1"/><path d="M2415.13 1229.04 2415.58 1227.59 2419.3 1228.75 2423.08 1216.58 2419.37 1215.43 2419.82 1213.98 2429.04 1216.85 2428.59 1218.29 2424.87 1217.14 2421.09 1229.3 2424.8 1230.46 2424.35 1231.91 2415.13 1229.04Z" fill="#000000" fill-rule="nonzero" fill-opacity="1"/><path d="M2439.05 1223.58 2432.17 1235.92 2430.53 1235.01 2437.41 1222.67 2432.87 1220.13 2433.67 1218.69 2444.41 1224.67 2443.6 1226.11 2439.06 1223.57 2439.05 1223.58Z" fill="#000000" fill-rule="nonzero" fill-opacity="1"/><path d="M2342.73 1341.67 2353.97 1330.6 2360.98 1337.71 2359.8 1338.87 2354.13 1333.11 2350.36 1336.83 2355.54 1342.11 2354.37 1343.26 2349.18 1337.99 2344.08 1343.03 2342.74 1341.67 2342.73 1341.67Z" fill="#000000" fill-rule="nonzero" fill-opacity="1"/><path d="M2361.98 1357.62 2363.35 1353.13 2358.71 1350.05 2355.11 1353.06 2353.47 1351.97 2366.23 1341.5 2368.34 1342.89 2363.68 1358.73 2362 1357.62 2361.98 1357.62ZM2366.23 1343.92 2366.06 1343.81 2359.99 1348.94 2363.87 1351.51 2366.22 1343.93 2366.23 1343.92Z" fill="#000000" fill-rule="nonzero" fill-opacity="1"/><path d="M2369.09 1361.32 2374.85 1346.63 2376.63 1347.32 2371.46 1360.48 2378.46 1363.22 2377.86 1364.76 2369.09 1361.32Z" fill="#000000" fill-rule="nonzero" fill-opacity="1"/><path d="M2384.45 1366.43 2387.01 1350.87 2388.89 1351.17 2386.59 1365.11 2394 1366.34 2393.73 1367.97 2384.44 1366.43 2384.45 1366.43Z" fill="#000000" fill-rule="nonzero" fill-opacity="1"/><path d="M2415.91 1366.87 2411.99 1351.6 2421.66 1349.11 2422.07 1350.71 2414.24 1352.72 2415.56 1357.86 2422.73 1356.02 2423.14 1357.62 2415.97 1359.46 2417.75 1366.4 2415.91 1366.87Z" fill="#000000" fill-rule="nonzero" fill-opacity="1"/><path d="M2431.38 1362.19 2424.39 1348.04 2433.14 1343.71 2433.87 1345.2 2426.83 1348.68 2429.18 1353.44 2435.97 1350.08 2436.71 1351.56 2429.91 1354.92 2432.36 1359.87 2439.4 1356.39 2440.13 1357.87 2431.38 1362.2 2431.38 1362.19Z" fill="#000000" fill-rule="nonzero" fill-opacity="1"/><path d="M2443.21 1353.06 2443.6 1351.32C2445.51 1351.77 2446.99 1351.55 2448.49 1350.37 2450.28 1348.95 2450.58 1347.3 2449.41 1345.81 2448.46 1344.61 2447.33 1344.46 2445.41 1345.51L2443.84 1346.38C2441.07 1347.9 2439.2 1347.1 2437.97 1345.54 2436.18 1343.27 2436.88 1340.82 2439.41 1338.82 2441.39 1337.26 2443.31 1336.91 2445.08 1337.43L2444.74 1339.17C2443.33 1338.81 2441.96 1338.9 2440.4 1340.12 2438.73 1341.44 2438.36 1342.91 2439.46 1344.31 2440.33 1345.41 2441.46 1345.67 2443.46 1344.58L2444.98 1343.76C2447.75 1342.26 2449.63 1342.97 2450.89 1344.59 2452.7 1346.88 2452.2 1349.52 2449.44 1351.7 2447.21 1353.45 2445.14 1353.61 2443.21 1353.07L2443.21 1353.06Z" fill="#000000" fill-rule="nonzero" fill-opacity="1"/><path d="M2450.66 1330.4 2461.49 1339.47 2460.26 1340.94 2449.44 1331.86 2446.05 1335.92 2444.78 1334.86 2452.8 1325.29 2454.06 1326.35 2450.66 1330.41 2450.66 1330.4Z" fill="#000000" fill-rule="nonzero" fill-opacity="1"/><path d="M2401.5 1325.18C2382.38 1325.18 2366.83 1309.62 2366.83 1290.5 2366.83 1271.38 2382.38 1255.83 2401.5 1255.83 2420.62 1255.83 2436.18 1271.38 2436.18 1290.5 2436.18 1309.62 2420.62 1325.18 2401.5 1325.18ZM2401.5 1257.27C2383.18 1257.27 2368.27 1272.18 2368.27 1290.5 2368.27 1308.83 2383.18 1323.74 2401.5 1323.74 2419.83 1323.74 2434.74 1308.83 2434.74 1290.5 2434.74 1272.18 2419.83 1257.27 2401.5 1257.27Z" fill="#000000" fill-rule="nonzero" fill-opacity="1"/><path d="M2413.99 1295.44 2413.92 1293.99C2428.46 1293.23 2434.41 1291.44 2434.74 1290.48 2434.26 1289.15 2422.74 1286.7 2401.5 1286.7 2400.59 1286.7 2399.7 1286.7 2398.8 1286.72L2398.78 1285.27C2399.68 1285.26 2400.58 1285.25 2401.5 1285.25 2410.6 1285.25 2419.16 1285.72 2425.61 1286.58 2436.18 1287.99 2436.18 1289.75 2436.18 1290.5 2436.18 1293.78 2422.28 1295 2413.99 1295.43L2413.99 1295.44Z" fill="#000000" fill-rule="nonzero" fill-opacity="1"/><path d="M2401.5 1295.76C2392.4 1295.76 2383.84 1295.29 2377.39 1294.43 2366.82 1293.02 2366.82 1291.26 2366.82 1290.51 2366.82 1287.23 2380.72 1286.01 2389.01 1285.58L2389.08 1287.02C2374.54 1287.79 2368.59 1289.58 2368.26 1290.54 2368.74 1291.87 2380.26 1294.32 2401.5 1294.32 2402.41 1294.32 2403.3 1294.32 2404.2 1294.3L2404.22 1295.75C2403.32 1295.76 2402.42 1295.77 2401.5 1295.77L2401.5 1295.76Z" fill="#000000" fill-rule="nonzero" fill-opacity="1"/><path d="M2391.26 1272.03 2390.02 1272.77 2412.2 1309.75 2413.44 1309.01 2391.26 1272.03Z" fill="#000000" fill-rule="nonzero" fill-opacity="1"/><path d="M2389.06 1273.11C2386.79 1273.11 2384.93 1271.27 2384.93 1268.99 2384.93 1266.71 2386.78 1264.87 2389.06 1264.87 2391.33 1264.87 2393.18 1266.71 2393.18 1268.99 2393.18 1271.27 2391.33 1273.11 2389.06 1273.11ZM2389.06 1266.32C2387.58 1266.32 2386.38 1267.52 2386.38 1269 2386.38 1270.47 2387.58 1271.67 2389.06 1271.67 2390.53 1271.67 2391.73 1270.47 2391.73 1269 2391.73 1267.52 2390.53 1266.32 2389.06 1266.32Z" fill="#000000" fill-rule="nonzero" fill-opacity="1"/><path d="M2413.95 1316.12C2411.68 1316.12 2409.83 1314.28 2409.83 1312 2409.83 1309.72 2411.67 1307.88 2413.95 1307.88 2416.23 1307.88 2418.07 1309.72 2418.07 1312 2418.07 1314.28 2416.23 1316.12 2413.95 1316.12ZM2413.95 1309.33C2412.48 1309.33 2411.28 1310.54 2411.28 1312.01 2411.28 1313.48 2412.48 1314.69 2413.95 1314.69 2415.43 1314.69 2416.63 1313.48 2416.63 1312.01 2416.63 1310.54 2415.43 1309.33 2413.95 1309.33Z" fill="#000000" fill-rule="nonzero" fill-opacity="1"/><path d="M2401.5 1313.86C2393.84 1313.86 2386.62 1313.39 2381.19 1312.53 2373.15 1311.25 2372.21 1309.68 2372.21 1308.61 2372.21 1307.54 2373.15 1305.97 2381.19 1304.7 2386.62 1303.84 2393.84 1303.36 2401.5 1303.36 2409.17 1303.36 2416.38 1303.83 2421.82 1304.7 2429.86 1305.97 2430.79 1307.54 2430.79 1308.61 2430.79 1310.66 2426.29 1312.16 2417.41 1313.1L2417.25 1311.67C2427.3 1310.61 2429.35 1308.99 2429.35 1308.61 2429.35 1307.32 2419.52 1304.81 2401.5 1304.81 2383.47 1304.81 2373.65 1307.32 2373.65 1308.61 2373.65 1309.9 2383.48 1312.42 2401.5 1312.42 2404.62 1312.42 2407.7 1312.34 2410.63 1312.18L2410.71 1313.63C2407.75 1313.79 2404.65 1313.86 2401.5 1313.86L2401.5 1313.86Z" fill="#000000" fill-rule="nonzero" fill-opacity="1"/><path d="M2401.5 1277.64C2393.84 1277.64 2386.62 1277.17 2381.19 1276.3 2373.15 1275.03 2372.21 1273.45 2372.21 1272.39 2372.21 1270.35 2376.72 1268.84 2385.58 1267.9L2385.74 1269.34C2375.71 1270.4 2373.66 1272.02 2373.66 1272.39 2373.66 1273.68 2383.49 1276.19 2401.5 1276.19 2419.52 1276.19 2429.36 1273.68 2429.36 1272.39 2429.36 1271.1 2419.53 1268.58 2401.5 1268.58 2398.38 1268.58 2395.3 1268.66 2392.37 1268.82L2392.29 1267.37C2395.25 1267.21 2398.35 1267.14 2401.5 1267.14 2409.17 1267.14 2416.38 1267.61 2421.82 1268.47 2429.86 1269.75 2430.79 1271.32 2430.79 1272.39 2430.79 1273.45 2429.86 1275.03 2421.82 1276.3 2416.38 1277.16 2409.17 1277.64 2401.5 1277.64Z" fill="#000000" fill-rule="nonzero" fill-opacity="1"/><path d="M2461.2 1296.7 2454.19 1296.7 2454.19 1295.15 2457.51 1292.27C2458.54 1291.35 2459.16 1290.55 2459.16 1289.64L2459.16 1289.47C2459.16 1288.42 2458.54 1287.83 2457.46 1287.83 2456.37 1287.83 2455.77 1288.5 2455.49 1289.42L2454.07 1288.89C2454.47 1287.61 2455.5 1286.43 2457.57 1286.43 2459.64 1286.43 2460.87 1287.67 2460.87 1289.39 2460.87 1291 2459.84 1292.1 2458.41 1293.27L2455.96 1295.32 2461.21 1295.32 2461.21 1296.7 2461.2 1296.7Z" fill="#000000" fill-rule="nonzero" fill-opacity="1"/><path d="M2462.93 1291.64C2462.93 1288.34 2464.07 1286.42 2466.65 1286.42 2469.23 1286.42 2470.37 1288.34 2470.37 1291.64 2470.37 1294.94 2469.23 1296.87 2466.65 1296.87 2464.07 1296.87 2462.93 1294.94 2462.93 1291.64ZM2468.7 1292.51 2468.7 1290.78C2468.7 1288.92 2468.13 1287.75 2466.65 1287.75 2465.17 1287.75 2464.6 1288.92 2464.6 1290.78L2464.6 1292.51C2464.6 1294.37 2465.17 1295.54 2466.65 1295.54 2468.13 1295.54 2468.7 1294.37 2468.7 1292.51ZM2465.75 1291.81 2465.75 1291.49C2465.75 1291.1 2465.98 1290.79 2466.65 1290.79 2467.32 1290.79 2467.55 1291.1 2467.55 1291.49L2467.55 1291.81C2467.55 1292.19 2467.32 1292.5 2466.65 1292.5 2465.98 1292.5 2465.75 1292.19 2465.75 1291.81Z" fill="#000000" fill-rule="nonzero" fill-opacity="1"/><path d="M2479.22 1296.7 2472.22 1296.7 2472.22 1295.15 2475.54 1292.27C2476.57 1291.35 2477.18 1290.55 2477.18 1289.64L2477.18 1289.47C2477.18 1288.42 2476.57 1287.83 2475.48 1287.83 2474.4 1287.83 2473.79 1288.5 2473.52 1289.42L2472.09 1288.89C2472.5 1287.61 2473.53 1286.43 2475.6 1286.43 2477.67 1286.43 2478.9 1287.67 2478.9 1289.39 2478.9 1291 2477.87 1292.1 2476.44 1293.27L2473.98 1295.32 2479.23 1295.32 2479.23 1296.7 2479.22 1296.7Z" fill="#000000" fill-rule="nonzero" fill-opacity="1"/><path d="M2487.34 1286.71 2487.34 1288.11 2482.78 1288.11 2482.52 1291.68 2482.63 1291.68C2483.09 1290.88 2483.67 1290.38 2484.81 1290.38 2486.53 1290.38 2487.86 1291.55 2487.86 1293.52 2487.86 1295.51 2486.53 1296.93 2484.23 1296.93 2482.42 1296.93 2481.47 1296.05 2480.85 1295.13L2482.03 1294.21C2482.53 1294.99 2483.09 1295.58 2484.26 1295.58 2485.5 1295.58 2486.18 1294.84 2486.18 1293.68L2486.18 1293.56C2486.18 1292.4 2485.48 1291.71 2484.26 1291.71 2483.37 1291.71 2482.89 1292.09 2482.52 1292.5L2481.18 1292.31 2481.55 1286.71 2487.34 1286.71Z" fill="#000000" fill-rule="nonzero" fill-opacity="1"/><path d="M2323 1296.7 2315.99 1296.7 2315.99 1295.15 2319.31 1292.27C2320.34 1291.35 2320.96 1290.55 2320.96 1289.64L2320.96 1289.47C2320.96 1288.42 2320.34 1287.83 2319.26 1287.83 2318.17 1287.83 2317.57 1288.5 2317.3 1289.42L2315.87 1288.89C2316.27 1287.61 2317.31 1286.43 2319.38 1286.43 2321.45 1286.43 2322.67 1287.67 2322.67 1289.39 2322.67 1291 2321.64 1292.1 2320.22 1293.27L2317.76 1295.32 2323.01 1295.32 2323.01 1296.7 2323 1296.7Z" fill="#000000" fill-rule="nonzero" fill-opacity="1"/><path d="M2324.73 1291.64C2324.73 1288.34 2325.87 1286.42 2328.45 1286.42 2331.03 1286.42 2332.18 1288.34 2332.18 1291.64 2332.18 1294.94 2331.03 1296.87 2328.45 1296.87 2325.87 1296.87 2324.73 1294.94 2324.73 1291.64ZM2330.5 1292.51 2330.5 1290.78C2330.5 1288.92 2329.93 1287.75 2328.45 1287.75 2326.97 1287.75 2326.4 1288.92 2326.4 1290.78L2326.4 1292.51C2326.4 1294.37 2326.97 1295.54 2328.45 1295.54 2329.93 1295.54 2330.5 1294.37 2330.5 1292.51ZM2327.55 1291.81 2327.55 1291.49C2327.55 1291.1 2327.78 1290.79 2328.45 1290.79 2329.12 1290.79 2329.36 1291.1 2329.36 1291.49L2329.36 1291.81C2329.36 1292.19 2329.12 1292.5 2328.45 1292.5 2327.78 1292.5 2327.55 1292.19 2327.55 1291.81Z" fill="#000000" fill-rule="nonzero" fill-opacity="1"/><path d="M2341.03 1296.7 2334.02 1296.7 2334.02 1295.15 2337.34 1292.27C2338.37 1291.35 2338.98 1290.55 2338.98 1289.64L2338.98 1289.47C2338.98 1288.42 2338.37 1287.83 2337.28 1287.83 2336.2 1287.83 2335.59 1288.5 2335.32 1289.42L2333.89 1288.89C2334.3 1287.61 2335.33 1286.43 2337.4 1286.43 2339.47 1286.43 2340.7 1287.67 2340.7 1289.39 2340.7 1291 2339.67 1292.1 2338.24 1293.27L2335.78 1295.32 2341.04 1295.32 2341.04 1296.7 2341.03 1296.7Z" fill="#000000" fill-rule="nonzero" fill-opacity="1"/><path d="M2349.14 1286.71 2349.14 1288.11 2344.58 1288.11 2344.32 1291.68 2344.44 1291.68C2344.9 1290.88 2345.47 1290.38 2346.61 1290.38 2348.34 1290.38 2349.66 1291.55 2349.66 1293.52 2349.66 1295.51 2348.34 1296.93 2346.03 1296.93 2344.22 1296.93 2343.27 1296.05 2342.65 1295.13L2343.83 1294.21C2344.34 1294.99 2344.9 1295.58 2346.06 1295.58 2347.3 1295.58 2347.98 1294.84 2347.98 1293.68L2347.98 1293.56C2347.98 1292.4 2347.29 1291.71 2346.06 1291.71 2345.17 1291.71 2344.7 1292.09 2344.32 1292.5L2342.98 1292.31 2343.36 1286.71 2349.14 1286.71Z" fill="#000000" fill-rule="nonzero" fill-opacity="1"/></g></g></g></g></g></g></svg>